<svg id="Layer_1" data-name="Layer 1" xmlns="http://www.w3.org/2000/svg" viewBox="0 0 971.44 214.2"><defs><style>.cls-1,.cls-4{fill:#008837;}.cls-2,.cls-3{fill:none;stroke:#fff;stroke-miterlimit:10;}.cls-2{stroke-width:2.83px;}.cls-3{stroke-width:1.42px;}.cls-4{font-size:133.23px;font-family:HelveticaNeue-Light, Helvetica Neue;}.cls-5{letter-spacing:-0.02em;}</style></defs><title>logo_final_1</title><path class="cls-1" d="M189.9,43A105.12,105.12,0,0,0,41.53,21.42,20.83,20.83,0,0,1,14.7,51.5,105.13,105.13,0,0,0,189.9,167.31,105.11,105.11,0,0,1,189.9,43ZM105.71,58.6l-.47,0-.49,0H89.66a4.31,4.31,0,0,1-4.31-4.32v0a4.35,4.35,0,0,1,6.49-3.8,7,7,0,0,1,12.72-3.27,6.23,6.23,0,0,1,1.15-.11,5.76,5.76,0,0,1,5.68,4.78h.06v.07c0,.09,0,.17,0,.26a4.94,4.94,0,0,1,0,.67A5.77,5.77,0,0,1,105.71,58.6Z" transform="translate(0)"/><path class="cls-2" d="M193.61,133.65c-5.29-2.75,8.71-10.21-25.28-8.28-30.41,1.73-49.62,13.32-55,16.77" transform="translate(0)"/><line class="cls-3" x1="148.84" y1="128.2" x2="185.42" y2="174.39"/><line class="cls-3" x1="156.89" y1="126.68" x2="204" y2="189.71"/><line class="cls-3" x1="140.05" y1="130.4" x2="167.82" y2="164.89"/><line class="cls-3" x1="131.13" y1="132.86" x2="150.54" y2="155.95"/><path class="cls-2" d="M178.33,171.12q5.17,3.54,10.08,7.45" transform="translate(0)"/><path class="cls-2" d="M3.91,144.12a192.75,192.75,0,0,1,32.44-6.94" transform="translate(0)"/><path class="cls-2" d="M136.31,149.66c-12.44,20.16-27.26,43.82-40,63.77" transform="translate(0)"/><path class="cls-2" d="M157.65,158.91c-6.12,14.3-14.25,35.32-20,49.77" transform="translate(0)"/><path class="cls-2" d="M178.33,171.12c-1.09,5.54-2.38,11-3.71,16.52" transform="translate(0)"/><path class="cls-2" d="M116.69,143.3,65.1,203.69" transform="translate(0)"/><path class="cls-2" d="M84.72,137c-18.46,15-37.17,29.75-55.46,45" transform="translate(0)"/><path class="cls-2" d="M178.33,171.12a180.49,180.49,0,0,0-20.68-12.21,197.23,197.23,0,0,0-21.34-9.25q-1.95-.72-4-1.41c-4-1.38-9.26-3.16-15.66-4.95a206.19,206.19,0,0,0-32-6.34,199.72,199.72,0,0,0-40.26-.64c-2.76.23-5.47.52-8.11.86" transform="translate(0)"/><path class="cls-2" d="M36.35,137.18c-10.17,5.26-19.66,11.68-29.47,17.56" transform="translate(0)"/><line class="cls-3" x1="124.5" y1="135.1" x2="136.31" y2="150.07"/><line class="cls-3" x1="165.56" y1="125.83" x2="212.68" y2="188.86"/><text class="cls-4" transform="translate(190.12 151.99)">C<tspan class="cls-5" x="93.79" y="0">r</tspan><tspan x="133.36" y="0">opConnect</tspan></text></svg>